<?xml version="1.0" standalone="no"?>
<!DOCTYPE svg PUBLIC "-//W3C//DTD SVG 20010904//EN"
 "http://www.w3.org/TR/2001/REC-SVG-20010904/DTD/svg10.dtd">
<svg version="1.0" xmlns="http://www.w3.org/2000/svg"
 width="256.000000pt" height="218.000000pt" viewBox="0 0 256.000000 218.000000"
 preserveAspectRatio="xMidYMid meet">

<g transform="translate(0.000000,218.000000) scale(0.100000,-0.100000)"
fill="#000000" stroke="none">
<path d="M755 2128 c-78 -51 -214 -177 -249 -230 -16 -25 -16 -29 -1 -58 9
-18 20 -28 24 -24 4 5 28 36 54 70 92 122 225 220 364 270 l68 24 -90 0 -91 0
-79 -52z"/>
<path d="M1170 2114 c0 -59 -2 -65 -17 -59 -41 15 -70 16 -81 2 -16 -19 -1
-31 56 -46 38 -11 42 -15 42 -44 0 -18 3 -48 6 -68 6 -33 4 -36 -17 -35 -39 2
-32 -43 11 -72 30 -20 81 -92 65 -92 -2 0 -34 12 -70 26 -73 29 -103 27 -85
-6 15 -27 64 -58 118 -72 23 -7 42 -15 42 -18 0 -3 -13 -13 -29 -23 -29 -17
-31 -16 -122 18 -95 37 -121 36 -100 -3 13 -24 62 -55 114 -72 42 -13 42 -13
21 -45 l-16 -24 -79 30 c-79 28 -129 37 -129 21 0 -33 122 -112 173 -112 12 0
17 -8 17 -30 0 -34 -1 -34 -90 -15 -37 8 -69 10 -74 5 -15 -15 47 -67 95 -80
24 -7 50 -14 57 -16 6 -2 12 -17 12 -35 0 -34 7 -33 -117 -12 -37 6 -40 -2
-17 -36 28 -40 133 -70 135 -38 1 21 18 -27 18 -54 l1 -25 -67 7 c-94 11 -113
11 -113 -1 0 -25 50 -59 104 -71 52 -11 57 -11 70 6 12 17 14 14 18 -29 l3
-48 -93 6 c-92 7 -93 7 -82 -13 22 -43 127 -84 160 -64 16 11 18 5 25 -69 l7
-81 -49 -49 c-59 -60 -151 -108 -207 -108 -44 0 -155 28 -244 60 -135 50 -318
165 -328 207 -4 13 -4 135 -1 271 6 278 22 380 82 531 31 78 32 86 18 108 -8
12 -18 23 -22 23 -10 0 -50 -85 -77 -164 -48 -139 -65 -265 -73 -526 -9 -281
-11 -270 76 -341 l54 -44 -119 -115 c-66 -63 -149 -137 -185 -165 l-66 -50 0
-182 -1 -183 290 0 290 0 -45 65 c-25 38 -55 98 -69 143 -29 92 -43 196 -28
206 20 12 199 25 272 20 l75 -6 1 -92 c1 -116 29 -212 82 -281 35 -47 41 -50
87 -53 l50 -2 -27 17 c-16 10 -28 20 -28 23 1 3 33 28 72 55 40 28 100 76 135
109 l63 59 53 -50 c61 -57 121 -100 194 -136 28 -15 60 -38 71 -52 21 -27 72
-35 72 -11 0 34 -49 83 -122 122 -42 23 -95 56 -118 74 -43 34 -160 165 -160
179 0 8 348 107 354 100 1 -2 27 -50 56 -106 29 -55 95 -161 147 -234 51 -74
93 -137 93 -141 0 -5 14 -8 30 -8 17 0 30 2 30 5 0 21 -39 89 -92 162 -60 84
-180 284 -174 291 2 1 43 -22 92 -53 150 -94 222 -101 291 -29 57 61 65 131
33 279 -36 167 -69 350 -76 425 l-6 76 103 90 c141 122 298 248 392 314 l77
54 0 184 0 184 -37 -23 c-143 -85 -396 -282 -526 -408 l-57 -56 -25 30 c-13
17 -24 35 -25 41 0 13 291 266 410 355 47 36 124 89 172 119 l88 55 0 43 0 42
-279 0 -280 0 -73 -59 c-40 -32 -93 -76 -118 -98 l-44 -40 -44 55 c-25 30 -72
74 -105 98 -56 42 -63 44 -126 44 l-66 0 63 -32 c74 -37 178 -129 221 -196 34
-53 38 -74 18 -90 -10 -8 -16 -6 -25 9 -8 13 -21 19 -35 17 -31 -4 -36 -57 -8
-82 20 -18 20 -19 1 -56 l-19 -37 -50 9 c-46 10 -50 12 -56 47 -3 20 -8 43
-11 52 -3 13 1 15 20 12 30 -6 48 21 35 55 -12 32 -39 39 -58 15 -16 -19 -18
-18 -44 38 -32 68 -122 170 -186 211 -29 18 -58 28 -83 28 l-38 0 0 -66z m146
-56 c99 -91 164 -238 164 -370 0 -51 -5 -81 -16 -96 l-15 -22 -65 57 c-108 95
-154 215 -154 399 0 94 0 95 21 83 12 -6 41 -29 65 -51z m844 18 c0 -13 -113
-213 -145 -255 -34 -48 -182 -191 -196 -191 -4 0 -9 6 -12 14 -12 30 42 105
159 221 181 179 195 211 58 135 -127 -70 -226 -178 -269 -293 -25 -66 -8 -117
50 -157 82 -56 124 -202 125 -430 1 -85 26 -236 75 -450 39 -166 27 -237 -48
-280 -24 -14 -30 -13 -84 14 -78 38 -260 164 -358 247 -181 155 -299 337 -346
536 -48 201 11 367 143 397 22 5 36 -2 73 -34 25 -22 55 -40 66 -40 37 0 89
77 89 131 0 19 4 21 38 14 20 -4 38 -8 38 -8 1 -1 9 -17 18 -34 25 -50 40 -41
58 37 9 39 33 97 52 129 49 80 165 188 253 234 90 47 163 75 163 63z m-914
-1312 c-3 -8 -2 -13 3 -10 5 3 19 -2 31 -12 l22 -18 -91 -62 c-51 -34 -94 -62
-96 -62 -1 0 -16 -11 -31 -24 -199 -168 -224 -187 -224 -163 0 13 5 38 11 54
8 25 17 32 47 37 50 8 179 94 237 158 27 29 52 52 57 50 5 -1 7 2 3 7 -3 6 2
22 11 36 18 28 29 33 20 9z m-790 -126 c4 -6 3 -8 -3 -5 -6 4 -17 -1 -24 -10
-12 -15 -12 -16 1 -8 24 15 40 15 75 -2 l33 -16 -50 -41 c-28 -23 -63 -51 -78
-64 l-29 -24 -10 39 c-17 59 -14 68 29 107 45 40 46 41 56 24z"/>
<path d="M1344 1295 c-8 -21 13 -103 37 -141 22 -36 103 -114 119 -114 20 0
-14 117 -55 186 -24 41 -68 84 -87 84 -5 0 -11 -7 -14 -15z"/>
<path d="M1821 554 c-36 -46 -25 -72 45 -108 25 -12 34 -13 41 -3 29 36 22 79
-18 116 -30 28 -43 26 -68 -5z"/>
<path d="M1139 633 l-24 -26 27 19 c15 10 28 22 28 27 0 12 -5 8 -31 -20z"/>
<path d="M1315 2150 c3 -5 17 -10 31 -10 13 0 24 5 24 10 0 6 -14 10 -31 10
-17 0 -28 -4 -24 -10z"/>
<path d="M1063 2143 c9 -2 25 -2 35 0 9 3 1 5 -18 5 -19 0 -27 -2 -17 -5z"/>
<path d="M910 2087 l-35 -22 59 -3 c62 -3 83 6 73 32 -9 23 -56 20 -97 -7z"/>
<path d="M1417 2103 c-15 -14 -6 -43 18 -59 20 -13 28 -14 40 -4 19 16 19 35
-1 54 -16 16 -46 21 -57 9z"/>
<path d="M1542 2038 c-18 -18 -15 -45 8 -68 26 -26 60 -12 60 25 0 42 -42 69
-68 43z"/>
<path d="M768 1996 c-28 -21 -21 -28 12 -11 17 9 30 18 30 20 0 10 -25 4 -42
-9z"/>
<path d="M877 1971 c-24 -15 -26 -19 -12 -25 9 -3 34 -6 56 -6 43 0 54 21 20
40 -26 14 -31 13 -64 -9z"/>
<path d="M1010 1925 c-10 -13 -10 -19 5 -35 22 -24 38 -25 56 -4 11 14 10 19
-10 35 -28 23 -35 23 -51 4z"/>
<path d="M652 1880 c-7 -11 -9 -20 -4 -20 4 0 13 9 20 20 7 11 9 20 4 20 -4 0
-13 -9 -20 -20z"/>
<path d="M750 1873 c-20 -4 -12 -10 45 -29 79 -27 85 -28 85 -14 0 27 -80 53
-130 43z"/>
<path d="M430 1846 c-14 -27 -8 -53 21 -90 24 -31 35 -32 48 -7 8 15 5 30 -15
65 -32 57 -38 61 -54 32z"/>
<path d="M935 1809 c-10 -15 25 -49 50 -49 32 0 39 26 12 45 -25 17 -53 20
-62 4z"/>
<path d="M557 1763 c-4 -3 -7 -11 -7 -17 0 -6 5 -5 12 2 6 6 9 14 7 17 -3 3
-9 2 -12 -2z"/>
<path d="M695 1736 c22 -7 50 -18 63 -25 12 -6 22 -8 22 -2 0 12 -74 41 -103
40 -14 0 -8 -5 18 -13z"/>
<path d="M840 1690 c0 -28 44 -48 65 -30 14 12 14 15 -1 31 -24 26 -64 25 -64
-1z"/>
<path d="M456 1654 c-8 -21 -8 -24 3 -24 5 0 11 9 14 20 6 24 -8 27 -17 4z"/>
<path d="M540 1647 c3 -3 30 -14 60 -25 30 -10 64 -23 75 -27 18 -8 18 -7 7 8
-8 9 -28 20 -45 26 -44 13 -103 24 -97 18z"/>
<path d="M740 1587 c0 -20 33 -47 59 -47 29 0 38 27 15 45 -24 18 -74 19 -74
2z"/>
<path d="M421 1543 c0 -6 -4 -20 -7 -30 -5 -14 -4 -15 5 -7 7 7 11 20 8 30 -3
11 -5 14 -6 7z"/>
<path d="M490 1516 c0 -17 7 -26 24 -30 13 -3 31 -9 40 -12 12 -4 16 0 16 15
0 16 -10 26 -35 37 -45 18 -45 18 -45 -10z"/>
<path d="M630 1470 c0 -20 27 -40 54 -40 27 0 19 39 -10 50 -36 14 -44 13 -44
-10z"/>
<path d="M770 1422 c0 -34 69 -58 86 -31 9 16 -16 38 -54 45 -28 6 -32 4 -32
-14z"/>
<path d="M390 1392 c0 -18 37 -42 65 -42 25 0 17 36 -10 48 -37 17 -55 15 -55
-6z"/>
<path d="M510 1351 c0 -15 41 -41 66 -41 13 0 0 41 -15 50 -30 16 -51 12 -51
-9z"/>
<path d="M640 1310 c0 -23 40 -43 65 -34 21 8 19 20 -7 38 -32 22 -58 20 -58
-4z"/>
<path d="M380 1265 c0 -8 -1 -18 -2 -22 -2 -3 12 -13 30 -20 30 -12 32 -12 32
7 0 12 -12 26 -30 35 -27 14 -30 14 -30 0z"/>
<path d="M780 1267 c0 -19 37 -47 63 -47 21 0 34 27 20 41 -5 5 -26 12 -46 16
-30 4 -37 2 -37 -10z"/>
<path d="M490 1216 c0 -18 8 -27 31 -35 42 -14 41 -15 37 11 -2 13 -15 27 -35
35 -32 13 -33 12 -33 -11z"/>
<path d="M610 1186 c0 -24 24 -46 50 -46 34 0 46 13 26 29 -16 13 -76 26 -76
17z"/>
<path d="M370 1121 c0 -20 32 -41 61 -41 17 0 9 38 -8 43 -10 2 -26 8 -35 12
-14 5 -18 2 -18 -14z"/>
<path d="M760 1127 c0 -32 68 -59 88 -34 16 19 -1 33 -50 42 -30 6 -38 4 -38
-8z"/>
<path d="M490 1080 c0 -13 10 -24 26 -30 36 -14 54 -12 54 5 0 8 -2 15 -4 15
-2 0 -20 7 -40 15 -35 15 -36 14 -36 -5z"/>
<path d="M622 1033 c2 -10 16 -24 32 -31 24 -12 30 -12 43 1 14 13 13 16 -3
25 -11 5 -32 12 -47 16 -24 6 -28 4 -25 -11z"/>
<path d="M370 1000 c0 -11 37 -37 60 -42 30 -6 22 17 -11 34 -40 20 -49 22
-49 8z"/>
<path d="M770 986 c0 -20 61 -49 84 -40 17 7 21 29 8 38 -5 3 -28 8 -50 12
-35 5 -42 4 -42 -10z"/>
<path d="M500 945 c0 -16 24 -31 59 -36 40 -6 34 17 -9 35 -49 20 -50 20 -50
1z"/>
<path d="M640 896 c0 -19 31 -36 64 -36 49 0 25 29 -36 44 -21 5 -28 3 -28 -8z"/>
<path d="M370 893 c0 -17 17 -32 54 -47 46 -19 46 -19 46 -3 0 7 -20 23 -45
35 -50 24 -55 26 -55 15z"/>
<path d="M512 828 c6 -20 76 -51 96 -43 13 6 6 13 -33 31 -58 27 -68 28 -63
12z"/>
<path d="M1640 192 c0 -10 48 -81 81 -119 15 -17 30 -41 34 -52 5 -15 15 -21
37 -21 28 0 30 2 23 28 -9 39 -49 96 -87 126 -36 27 -88 50 -88 38z"/>
<path d="M1540 172 c0 -4 10 -21 23 -38 89 -123 100 -134 123 -134 28 0 29 8
10 54 -17 40 -58 80 -108 107 -41 21 -48 23 -48 11z"/>
<path d="M740 55 c0 -2 5 -16 12 -30 9 -21 18 -25 55 -25 23 0 43 2 43 5 0 5
-49 31 -85 45 -14 5 -25 8 -25 5z"/>
<path d="M666 15 c4 -8 16 -15 27 -15 20 0 20 0 1 15 -25 19 -35 19 -28 0z"/>
</g>
</svg>
