<?xml version="1.0" standalone="no"?>
<!DOCTYPE svg PUBLIC "-//W3C//DTD SVG 20010904//EN"
 "http://www.w3.org/TR/2001/REC-SVG-20010904/DTD/svg10.dtd">
<svg version="1.0" xmlns="http://www.w3.org/2000/svg"
 width="1800.000000pt" height="1536.000000pt" viewBox="0 0 1800.000000 1536.000000"
 preserveAspectRatio="xMidYMid meet">

<g transform="translate(0.000000,1536.000000) scale(0.100000,-0.100000)"
fill="#000000" stroke="none">
<path d="M5900 15351 c0 -5 6 -12 13 -14 6 -3 3 -6 -8 -6 -31 -2 -198 -80
-320 -151 -185 -107 -318 -195 -599 -400 -350 -256 -771 -640 -1036 -946 -127
-145 -400 -475 -453 -547 -21 -29 -45 -61 -54 -71 -15 -19 -14 -24 18 -85 82
-161 193 -337 232 -370 14 -11 31 11 128 156 348 521 740 967 1154 1311 254
212 601 449 895 611 78 43 416 211 424 211 3 0 29 11 59 24 61 28 125 53 182
70 22 7 58 20 79 29 77 34 277 98 415 133 102 26 106 27 96 43 -8 14 -1225 15
-1225 2z"/>
<path d="M8236 15308 c-12 -117 -26 -486 -26 -695 0 -123 -2 -223 -5 -223 -2
0 -35 19 -72 42 -113 69 -178 97 -279 118 -229 47 -343 6 -372 -135 -18 -86 7
-114 148 -166 214 -78 452 -139 541 -139 l39 0 0 -83 c0 -151 53 -649 75 -709
10 -27 45 -202 41 -206 -3 -2 -30 10 -61 27 -141 78 -285 37 -340 -96 -19 -45
-19 -76 1 -132 25 -72 42 -99 102 -159 66 -66 165 -134 272 -187 41 -21 83
-41 92 -46 10 -5 24 -9 32 -9 14 0 66 -58 66 -74 0 -3 9 -28 21 -54 12 -26 24
-56 29 -67 16 -42 116 -243 152 -306 21 -36 38 -69 38 -72 0 -3 -39 12 -87 34
-222 103 -264 122 -358 159 -44 17 -93 38 -110 45 -74 32 -229 90 -324 121
-80 26 -122 34 -177 34 -71 0 -74 -1 -98 -33 -36 -47 -33 -90 9 -175 51 -101
106 -157 252 -254 119 -80 343 -198 375 -198 8 0 18 -4 24 -9 32 -30 453 -151
525 -151 35 0 49 -4 47 -12 -3 -7 -63 -42 -134 -78 -129 -66 -183 -100 -295
-185 -57 -43 -79 -54 -79 -37 0 11 -89 49 -235 99 -55 19 -110 38 -122 44 -13
5 -34 14 -48 19 -14 6 -36 15 -50 20 -14 6 -35 14 -47 19 -13 5 -44 18 -70 30
-26 12 -51 21 -55 21 -11 0 -122 46 -130 54 -3 3 -12 6 -20 6 -7 0 -32 8 -56
19 -23 10 -69 29 -102 41 -33 12 -68 26 -77 31 -10 5 -27 9 -37 9 -11 0 -22 4
-25 9 -3 5 -18 11 -33 14 -16 3 -55 12 -88 21 -93 24 -157 21 -189 -9 -31 -28
-33 -58 -10 -136 38 -128 104 -205 269 -314 106 -70 231 -145 241 -145 2 0 43
-18 89 -40 47 -21 145 -58 218 -80 183 -57 194 -60 265 -68 l64 -7 -53 -80
c-65 -99 -138 -226 -163 -282 -20 -45 -26 -49 -54 -34 -9 5 -64 24 -122 41
-58 18 -163 52 -235 77 -71 24 -164 55 -205 69 -41 14 -84 29 -95 34 -11 5
-49 19 -85 30 -36 12 -74 26 -85 31 -154 66 -544 160 -595 144 -49 -16 -42
-89 21 -224 72 -153 109 -189 319 -309 19 -11 69 -39 110 -62 61 -36 192 -100
305 -150 168 -75 443 -162 545 -172 28 -3 28 3 6 -133 -8 -49 -15 -134 -15
-189 -1 -89 -3 -98 -18 -91 -18 7 -46 13 -168 39 -38 8 -149 33 -245 56 -273
65 -329 77 -415 90 -44 6 -104 16 -134 21 -30 5 -84 9 -119 9 l-65 0 5 -38 c8
-58 64 -183 113 -249 24 -33 70 -81 102 -105 82 -64 286 -174 337 -182 16 -3
32 -9 35 -14 14 -22 444 -122 523 -122 26 0 28 -3 28 -39 0 -47 27 -281 40
-352 6 -29 10 -53 10 -55 0 -7 -86 -4 -166 5 -43 6 -126 15 -184 21 -58 6
-157 19 -220 30 -200 32 -292 42 -390 44 l-95 1 1 -47 c0 -50 1 -52 55 -161
68 -138 188 -237 380 -315 162 -66 396 -118 498 -110 l45 3 52 100 c28 55 59
101 68 103 9 2 16 0 16 -5 0 -47 64 -540 83 -636 1 -7 -3 -11 -9 -10 -6 1 -96
9 -200 17 -283 24 -376 34 -644 73 -276 39 -434 52 -444 35 -9 -15 40 -156 77
-222 90 -158 238 -253 537 -341 179 -53 518 -97 556 -71 6 4 34 41 63 82 72
105 89 126 96 118 4 -3 11 -64 16 -135 5 -70 17 -216 28 -323 10 -107 18 -196
16 -198 -3 -3 -409 26 -535 39 -115 11 -146 15 -427 54 -105 14 -218 25 -250
23 l-58 -3 1 -41 c0 -26 15 -69 39 -120 99 -200 332 -348 710 -449 96 -25 307
-65 349 -65 30 0 34 4 121 129 39 55 73 101 77 101 4 0 7 -66 6 -148 0 -81 5
-203 11 -272 16 -193 30 -378 41 -570 6 -96 15 -179 21 -186 6 -8 4 -13 -8
-16 -10 -3 -29 -26 -42 -51 -13 -26 -49 -77 -79 -114 -78 -96 -275 -294 -352
-355 -36 -29 -81 -67 -100 -84 -56 -52 -115 -94 -280 -201 -251 -163 -444
-253 -660 -309 -144 -36 -349 -34 -571 6 -247 44 -479 99 -684 161 -38 11 -99
29 -135 39 -82 23 -159 46 -235 71 -33 11 -76 24 -95 30 -19 6 -44 14 -55 19
-11 4 -47 18 -80 30 -33 12 -71 27 -85 32 -36 15 -60 24 -100 38 -44 15 -63
23 -122 49 -26 12 -50 21 -53 21 -2 0 -34 13 -70 30 -36 16 -68 30 -70 30 -10
0 -259 117 -445 209 -415 206 -789 439 -1200 750 -154 116 -256 219 -296 297
l-31 59 -2 1055 c-2 1252 12 1744 70 2315 33 333 123 885 189 1165 22 91 49
206 60 255 48 206 61 261 70 280 5 11 18 52 30 90 29 93 101 298 130 370 4 11
22 58 40 105 18 47 40 103 50 125 10 22 26 58 35 80 33 77 70 151 115 230 25
44 52 96 61 115 l17 36 -66 84 c-35 47 -91 126 -123 175 -33 50 -62 95 -66
101 -5 5 -13 19 -19 30 -6 10 -15 18 -19 17 -4 -1 -22 -28 -40 -60 -18 -32
-44 -78 -58 -103 -25 -43 -170 -333 -187 -375 -4 -11 -17 -41 -29 -67 -12 -26
-21 -50 -21 -53 0 -3 -8 -24 -19 -48 -10 -23 -29 -69 -41 -102 -12 -33 -26
-69 -30 -80 -4 -11 -13 -36 -20 -55 -7 -19 -16 -44 -20 -55 -113 -282 -272
-852 -360 -1292 -69 -347 -120 -667 -154 -978 -57 -512 -60 -593 -61 -1845 0
-635 -4 -1166 -8 -1180 -8 -25 -13 -38 -37 -95 -21 -51 -25 -201 -6 -274 21
-81 65 -168 121 -240 89 -115 477 -480 590 -556 28 -18 88 -61 135 -94 47 -34
89 -63 95 -64 16 -6 -1010 -1026 -1225 -1218 -554 -495 -773 -679 -1227 -1030
l-143 -110 0 -1280 0 -1279 2060 0 2061 0 -93 108 c-118 136 -148 173 -240
302 -129 181 -167 242 -254 408 -8 15 -14 32 -14 39 0 7 -13 33 -29 58 -61 96
-181 385 -231 555 -13 41 -34 111 -47 155 -52 170 -107 414 -134 598 -6 40
-17 115 -25 167 -8 52 -17 178 -20 280 -4 102 -11 191 -17 198 -6 8 -6 16 1
25 15 18 76 52 67 37 -8 -13 31 -9 85 10 14 4 70 13 125 19 121 14 237 29 325
41 36 6 153 17 260 27 303 27 1136 24 1455 -4 44 -4 105 -8 135 -8 51 0 55 2
58 25 10 104 98 434 134 507 12 25 4 43 -22 43 -10 0 -22 5 -26 11 -5 8 3 10
27 5 19 -3 40 -7 47 -8 6 -1 12 -2 12 -2 0 -1 -12 -32 -25 -71 -14 -38 -27
-74 -28 -80 -2 -5 -5 -14 -8 -20 -4 -5 -21 -71 -39 -145 -17 -74 -38 -157 -45
-185 -7 -27 -18 -115 -24 -195 -6 -80 -15 -187 -20 -238 -14 -134 -14 -505 -1
-497 6 3 7 0 4 -10 -4 -8 -1 -21 5 -29 6 -7 9 -20 5 -29 -12 -33 16 -286 62
-552 26 -147 109 -447 153 -550 87 -203 196 -398 314 -565 35 -49 134 -158
234 -257 l174 -173 307 1 c241 0 303 3 289 12 -31 20 -238 155 -324 210 -45
28 -82 54 -82 57 0 3 28 22 62 42 189 110 1086 793 1338 1018 234 209 398 361
467 434 40 42 77 76 82 76 5 0 16 -12 24 -27 16 -31 361 -375 471 -469 253
-219 572 -454 800 -589 90 -53 344 -195 349 -195 2 0 44 -18 93 -41 48 -22
104 -47 123 -56 33 -14 97 -46 165 -81 68 -36 200 -190 285 -334 l34 -58 191
0 191 0 -7 57 c-12 106 -32 169 -92 288 -79 161 -188 281 -352 390 -69 45
-250 142 -310 166 -50 19 -328 158 -401 200 -170 98 -413 279 -629 469 -188
166 -532 521 -726 750 -181 214 -344 429 -332 440 17 16 154 61 283 94 159 41
517 138 610 166 191 57 256 76 370 107 69 19 139 36 155 38 57 6 556 153 597
175 10 6 27 10 38 10 11 0 20 4 20 8 0 5 12 7 28 5 15 -3 63 7 107 22 44 15
94 30 110 35 54 14 200 58 217 65 14 6 17 1 15 -32 -2 -64 346 -752 630 -1243
194 -337 537 -867 707 -1095 110 -146 200 -271 291 -399 44 -62 120 -166 169
-230 99 -131 159 -227 236 -382 l53 -104 190 0 190 0 -6 42 c-10 73 -97 323
-133 383 -6 11 -27 49 -46 85 -56 104 -113 193 -217 338 -53 76 -117 166 -141
202 -24 36 -46 67 -50 70 -16 14 -309 429 -427 605 -147 221 -337 538 -476
795 -16 30 -40 73 -52 95 -12 22 -38 69 -57 105 -20 36 -50 92 -68 125 -116
212 -231 437 -226 442 7 7 54 -23 237 -149 86 -59 161 -108 166 -108 6 0 28
-13 49 -28 22 -16 44 -31 49 -33 6 -2 82 -52 170 -110 260 -171 672 -409 710
-409 8 0 15 -4 15 -10 0 -5 10 -9 23 -7 14 1 21 -3 19 -11 -1 -8 2 -11 8 -7 6
4 18 1 26 -6 18 -15 170 -70 199 -72 11 -1 23 -5 26 -9 3 -5 18 -9 35 -10 16
-1 35 -6 42 -12 21 -15 292 -20 365 -7 215 41 398 142 567 312 182 182 309
422 353 669 29 157 40 319 34 480 -13 309 -50 540 -172 1065 -132 566 -269
1256 -360 1810 -64 393 -108 734 -134 1045 -26 305 -31 372 -31 429 0 52 3 62
23 72 26 14 17 6 372 319 153 135 298 261 322 282 23 20 76 65 115 100 294
259 454 394 993 839 121 99 244 202 274 227 133 115 310 254 784 618 173 132
585 427 887 634 l240 164 0 1294 0 1293 -57 -31 c-32 -18 -69 -40 -84 -51 -15
-10 -30 -19 -33 -19 -23 0 -600 -366 -866 -550 -58 -40 -177 -122 -264 -183
-537 -372 -1259 -940 -1831 -1442 -45 -38 -110 -95 -145 -125 -302 -259 -746
-665 -954 -872 -87 -87 -160 -157 -161 -156 -1 2 -11 21 -21 43 -41 88 -209
335 -295 434 -22 24 -39 48 -39 53 0 10 39 46 175 165 50 43 95 83 101 89 7 5
74 64 149 130 126 109 405 353 645 564 53 47 125 110 160 140 35 30 102 89
149 130 47 41 127 109 176 150 50 41 151 127 225 190 240 206 726 606 925 762
160 124 589 440 740 543 72 49 202 139 290 200 176 121 218 150 378 249 59 37
127 80 150 96 48 32 236 142 390 228 l97 54 0 309 0 309 -1975 0 c-1728 0
-1975 -2 -1975 -15 0 -8 -10 -20 -22 -26 -13 -7 -25 -15 -28 -18 -3 -4 -57
-44 -120 -90 -63 -46 -140 -103 -170 -127 -102 -79 -425 -337 -430 -343 -3 -3
-34 -31 -70 -61 -104 -88 -374 -322 -385 -334 -6 -6 -48 -45 -95 -86 -127
-111 -289 -271 -296 -292 -8 -26 -19 -22 -41 15 -37 61 -274 361 -372 472
-305 340 -742 711 -1014 859 -22 12 -36 25 -33 33 5 11 -83 13 -476 11 -327
-2 -482 -6 -485 -14 -2 -5 25 -18 59 -29 35 -10 70 -22 78 -26 25 -14 108 -49
115 -49 16 0 256 -126 360 -188 61 -37 84 -51 143 -87 66 -40 290 -202 411
-299 379 -303 687 -650 918 -1036 32 -53 163 -312 163 -322 0 -5 -24 -43 -53
-86 -29 -42 -69 -103 -87 -134 -19 -32 -37 -58 -41 -58 -4 0 -24 30 -44 67
-82 149 -155 217 -260 243 -94 23 -181 -25 -240 -131 -29 -51 -30 -60 -30
-174 0 -135 11 -167 83 -247 51 -57 177 -158 197 -158 28 0 27 -26 -6 -81 -18
-30 -79 -146 -136 -259 -58 -113 -109 -209 -113 -214 -6 -6 -14 -5 -22 1 -40
30 -394 93 -522 93 -72 0 -135 12 -140 26 -3 8 -15 71 -26 141 -54 325 -91
466 -223 843 -145 412 -258 638 -475 955 -65 94 -201 270 -244 316 -7 8 -44
50 -83 94 -177 204 -300 317 -523 484 -199 149 -445 301 -487 301 -14 0 -15 3
-5 15 11 13 -19 15 -263 15 l-276 0 -5 -52z m500 -402 c470 -292 862 -702
1179 -1231 65 -108 174 -321 205 -400 4 -11 15 -36 24 -56 54 -123 143 -397
187 -574 77 -312 102 -511 102 -815 0 -230 -12 -336 -50 -449 -50 -147 -130
-262 -218 -311 -37 -21 -40 -21 -50 -5 -46 77 -89 128 -215 255 -92 92 -176
166 -230 202 -182 122 -290 231 -415 418 -53 80 -205 335 -205 345 0 2 -18 43
-40 92 -47 101 -59 129 -71 161 -5 12 -13 32 -18 45 -35 82 -131 383 -157 490
-54 222 -102 545 -124 826 -11 150 -14 778 -3 944 4 69 10 107 17 107 6 0 43
-20 82 -44z m6461 -318 c-86 -125 -205 -324 -290 -488 -39 -74 -97 -184 -129
-245 -32 -60 -103 -198 -157 -306 -112 -224 -151 -289 -300 -514 -308 -461
-659 -836 -1185 -1265 -71 -58 -175 -144 -232 -192 -56 -49 -106 -88 -112 -88
-5 0 -28 24 -50 53 -23 29 -52 63 -65 75 -25 23 -25 23 -7 60 10 20 42 87 72
147 88 184 195 357 347 565 205 282 514 593 971 980 336 284 521 484 695 750
60 91 127 194 151 230 24 35 41 66 39 69 -4 3 -65 -16 -122 -40 -13 -5 -35
-14 -50 -20 -16 -7 -37 -15 -48 -19 -256 -98 -667 -322 -950 -518 -328 -227
-712 -595 -940 -897 -296 -394 -493 -786 -575 -1143 -7 -29 -13 -94 -14 -145
-1 -94 4 -113 57 -237 8 -19 32 -75 51 -125 51 -126 78 -171 102 -168 10 1 13
0 7 -3 -18 -8 -16 -25 7 -53 16 -18 23 -21 34 -12 10 9 16 8 26 -4 7 -8 17
-15 22 -15 11 0 167 -105 183 -124 6 -6 37 -29 70 -50 104 -68 111 -76 291
-356 12 -19 31 -53 41 -75 10 -22 20 -42 24 -45 3 -3 35 -72 72 -155 128 -288
225 -620 257 -883 38 -306 60 -700 60 -1099 0 -490 27 -820 111 -1383 34 -228
154 -863 220 -1161 22 -101 51 -238 65 -304 14 -66 58 -253 99 -415 174 -702
218 -962 218 -1300 1 -297 -39 -445 -172 -649 -97 -149 -212 -246 -349 -294
-79 -27 -254 -29 -332 -3 -105 35 -396 176 -444 215 -6 5 -27 18 -46 29 -155
87 -556 338 -800 502 -319 213 -1042 743 -1145 839 -22 21 -52 46 -66 57 -35
25 -348 288 -474 399 -157 137 -427 407 -586 585 -297 333 -723 899 -884 1175
-29 50 -76 128 -104 175 -73 121 -267 510 -334 670 -143 344 -240 634 -301
905 -116 512 -139 687 -139 1050 0 362 30 569 125 850 132 389 337 655 655
849 183 111 301 149 468 150 94 1 117 -2 160 -22 80 -37 149 -96 222 -189 110
-141 187 -217 256 -252 349 -176 672 88 818 669 16 63 35 163 41 223 6 59 15
107 19 107 4 0 88 -13 187 -30 99 -16 222 -32 274 -35 l93 -4 2 -73 c4 -204
186 -428 374 -463 l36 -7 6 54 c4 29 7 87 7 128 0 41 5 91 10 110 6 19 17 73
25 120 40 237 81 380 158 560 74 172 179 380 229 452 10 14 18 29 18 32 0 14
169 258 253 366 298 382 583 645 1114 1031 140 102 392 248 600 350 133 64
179 86 293 137 140 62 419 159 570 197 58 15 112 31 120 36 42 24 36 0 -23
-83z m-6421 -9115 c48 -64 276 -283 295 -283 14 0 119 -89 119 -101 0 -5 -9
-9 -19 -9 -11 0 -21 -3 -23 -8 -3 -7 -167 -116 -578 -386 -107 -70 -242 -161
-300 -201 -58 -40 -161 -112 -230 -160 -161 -112 -232 -162 -245 -173 -17 -14
-325 -244 -390 -292 -91 -66 -242 -188 -309 -250 -75 -68 -216 -187 -356 -300
-213 -170 -449 -371 -599 -509 -84 -78 -155 -141 -157 -138 -2 2 3 35 11 74 8
39 19 99 24 134 32 209 66 369 100 469 5 14 21 64 37 113 15 48 31 87 35 87 5
0 9 -3 9 -7 0 -14 113 -12 201 2 186 31 346 99 589 252 308 194 388 246 440
284 30 22 66 48 80 57 171 112 449 363 636 572 133 149 433 556 504 685 26 48
82 124 91 125 4 0 19 -17 35 -37z m-5666 -883 c0 -11 7 -20 15 -20 8 0 66 -31
128 -68 62 -38 165 -93 228 -124 258 -126 306 -148 322 -148 31 0 17 -18 -51
-68 -156 -113 -513 -412 -738 -617 -183 -167 -351 -315 -358 -315 -3 0 -6 10
-6 23 0 12 -7 54 -15 92 -9 39 -22 102 -30 140 -8 39 -19 88 -25 110 -6 22
-26 119 -46 215 -19 96 -39 188 -44 204 -8 25 -6 31 18 50 90 71 262 228 436
398 83 81 154 148 159 148 4 0 7 -9 7 -20z m1250 -614 c0 -11 -19 -15 -25 -6
-3 5 1 10 9 10 9 0 16 -2 16 -4z m84 -15 c3 -4 20 -12 38 -16 18 -4 28 -9 21
-12 -7 -2 -27 2 -45 10 -18 9 -40 18 -48 20 -10 4 -7 6 7 6 12 1 24 -3 27 -8z
m-175 -58 c-30 -32 -65 -67 -78 -77 -13 -11 -34 -29 -46 -40 -41 -39 -80 -72
-125 -106 -25 -19 -47 -38 -50 -41 -3 -3 -12 -10 -22 -15 -9 -5 -35 -26 -57
-47 -23 -21 -41 -34 -41 -30 0 4 -15 -9 -33 -28 -19 -18 -47 -45 -63 -58 -16
-13 -52 -44 -80 -70 -179 -164 -228 -207 -267 -235 -63 -44 -159 -118 -175
-133 -7 -7 -16 -13 -20 -13 -4 0 -25 -16 -47 -35 -40 -35 -55 -42 -55 -26 0 4
22 23 48 42 27 19 66 49 88 67 21 18 89 72 150 120 61 48 118 94 126 102 8 8
41 38 74 65 32 28 82 72 111 99 29 27 53 45 53 40 0 -5 7 1 15 13 8 12 75 67
147 124 73 56 140 110 148 119 8 9 23 21 32 26 9 5 59 51 112 102 108 103 137
122 55 35z m317 -1 c-10 -2 -22 0 -28 6 -6 6 0 7 19 4 21 -5 23 -7 9 -10z
m147 -37 c37 -10 67 -22 67 -26 0 -5 12 -10 28 -10 18 -1 21 -3 9 -6 -10 -3
-40 4 -65 15 -26 11 -70 25 -99 33 -29 7 -50 16 -47 21 3 4 13 4 22 -1 9 -4
47 -16 85 -26z m167 -55 c13 -8 13 -10 -2 -10 -9 0 -20 5 -23 10 -8 13 5 13
25 0z m127 -46 c-3 -3 -12 -4 -19 -1 -8 3 -5 6 6 6 11 1 17 -2 13 -5z m128
-33 c28 -6 68 -17 90 -25 22 -8 48 -15 57 -16 9 0 20 -4 23 -10 8 -13 -47 -3
-100 17 -22 9 -56 19 -75 24 -19 4 -51 13 -70 18 -31 9 -31 10 -5 6 17 -2 53
-9 80 -14z m250 -71 c4 -6 -6 -7 -27 -3 -44 8 -48 13 -10 13 17 0 34 -4 37
-10z m42 -6 c-3 -3 -12 -4 -19 -1 -8 3 -5 6 6 6 11 1 17 -2 13 -5z m3128 -834
c3 -5 1 -10 -4 -10 -6 0 -11 5 -11 10 0 6 2 10 4 10 3 0 8 -4 11 -10z"/>
<path d="M9489 9214 c-59 -18 -51 -395 12 -624 71 -254 218 -518 405 -724 151
-168 486 -464 600 -531 53 -31 97 -55 99 -53 4 4 -27 238 -46 348 -10 55 -36
166 -69 285 -56 207 -223 574 -362 794 -156 248 -305 401 -467 479 -43 21
-140 35 -172 26z"/>
<path d="M12944 4080 c-29 -11 -106 -101 -174 -201 -96 -141 -120 -206 -120
-323 l0 -81 63 -65 c129 -135 476 -334 619 -355 66 -10 88 9 142 118 101 206
88 405 -39 602 -136 212 -367 356 -491 305z"/>
<path d="M8729 5463 c-1 -5 -1 -11 0 -15 0 -5 -3 -8 -7 -8 -8 0 -32 -43 -32
-56 0 -3 11 7 23 22 l24 27 36 -39 c20 -21 37 -45 37 -51 0 -7 5 -13 11 -13
10 0 83 -60 165 -136 24 -23 60 -49 79 -58 18 -9 37 -25 40 -36 4 -11 12 -17
21 -13 21 8 17 17 -13 35 -16 9 -37 25 -48 35 -11 10 -51 45 -90 78 -74 63
-186 175 -212 213 -15 22 -32 29 -34 15z"/>
<path d="M8673 5363 c-7 -3 -13 -12 -13 -21 0 -15 2 -15 17 1 18 18 16 27 -4
20z"/>
<path d="M8713 5362 c-16 -10 -28 -82 -14 -82 6 0 11 13 11 28 0 15 5 33 12
40 14 14 7 24 -9 14z"/>
<path d="M8745 5360 c-3 -6 1 -7 9 -4 18 7 21 14 7 14 -6 0 -13 -4 -16 -10z"/>
<path d="M8640 5312 c0 -11 -62 -106 -72 -110 -5 -2 -8 -8 -8 -13 0 -11 -57
-93 -92 -133 -16 -17 -28 -34 -28 -37 0 -4 -20 -32 -45 -62 -56 -69 -59 -89
-11 -71 22 8 20 25 -1 18 -17 -5 -17 -5 0 9 9 8 17 18 17 23 0 18 39 42 59 37
15 -4 21 -1 21 12 0 14 -3 15 -15 5 -11 -9 -15 -9 -15 -1 0 6 6 14 14 17 8 3
13 11 10 17 -2 7 6 23 18 38 13 14 28 34 34 45 7 10 20 18 30 17 11 -1 13 0 7
3 -19 8 -16 18 12 48 14 15 25 33 25 40 0 7 9 21 20 31 11 10 20 24 20 32 0 7
5 13 10 13 6 0 10 7 10 15 0 8 -4 15 -10 15 -5 0 -10 -4 -10 -8z"/>
<path d="M8810 5316 c0 -2 8 -10 18 -17 15 -13 16 -12 3 4 -13 16 -21 21 -21
13z"/>
<path d="M8621 5216 c-9 -10 -8 -15 2 -19 8 -3 13 3 13 14 0 23 0 23 -15 5z"/>
<path d="M8985 5020 c3 -5 10 -10 16 -10 5 0 9 5 9 10 0 6 -7 10 -16 10 -8 0
-12 -4 -9 -10z"/>
<path d="M8960 5000 c0 -5 5 -10 11 -10 5 0 7 5 4 10 -3 6 -8 10 -11 10 -2 0
-4 -4 -4 -10z"/>
<path d="M8830 4910 c-13 -8 -12 -10 3 -10 9 0 17 5 17 10 0 12 -1 12 -20 0z"/>
<path d="M8760 4860 c-14 -11 -31 -20 -37 -20 -7 0 -13 -4 -13 -10 0 -16 12
-11 54 20 22 17 35 30 30 30 -5 0 -20 -9 -34 -20z"/>
<path d="M8287 4799 c-15 -16 -27 -38 -27 -48 0 -11 -12 -32 -27 -48 -16 -16
-41 -46 -58 -67 -16 -21 -52 -64 -79 -95 -47 -53 -63 -71 -166 -175 -62 -64
-78 -58 -19 7 48 51 65 82 32 56 -34 -27 -113 -110 -113 -119 0 -5 7 -7 15 -4
8 4 15 1 15 -6 0 -7 -8 -10 -20 -7 -14 3 -30 -3 -47 -19 -14 -13 -30 -24 -35
-24 -11 0 -98 -82 -98 -94 0 -4 15 -6 33 -3 17 3 26 3 20 0 -16 -6 -17 -23 -2
-23 10 0 82 52 104 76 5 5 34 28 63 49 33 25 50 45 47 53 -4 10 0 13 14 9 10
-2 25 3 33 12 8 9 27 25 42 35 44 32 61 49 74 79 15 36 8 34 -27 -5 -16 -18
-33 -29 -37 -25 -5 4 4 18 19 31 15 13 27 29 27 35 0 7 4 9 10 6 5 -3 29 14
52 38 49 50 64 70 81 110 6 15 15 27 19 27 4 0 8 6 8 13 0 7 8 22 19 33 10 12
22 36 26 55 4 18 15 39 24 46 9 6 14 14 11 16 -3 3 -18 -8 -33 -24z"/>
<path d="M8620 4778 c0 -10 9 -9 35 2 17 8 16 8 -7 7 -16 -1 -28 -5 -28 -9z"/>
<path d="M8312 4564 c-7 -8 -8 -14 -3 -14 10 0 25 19 20 25 -2 1 -10 -3 -17
-11z"/>
<path d="M8235 4550 c3 -5 8 -10 11 -10 2 0 4 5 4 10 0 6 -5 10 -11 10 -5 0
-7 -4 -4 -10z"/>
<path d="M8277 4553 c-4 -3 -7 -11 -7 -17 0 -6 5 -5 12 2 6 6 9 14 7 17 -3 3
-9 2 -12 -2z"/>
<path d="M8203 4512 c-30 -11 -43 -22 -43 -35 0 -18 1 -18 23 -3 12 9 32 21
45 26 12 5 22 14 22 20 0 5 -1 9 -2 9 -2 -1 -22 -9 -45 -17z"/>
<path d="M8120 4444 c0 -8 5 -12 10 -9 6 3 10 10 10 16 0 5 -4 9 -10 9 -5 0
-10 -7 -10 -16z"/>
<path d="M8090 4420 c0 -5 5 -10 10 -10 6 0 10 5 10 10 0 6 -4 10 -10 10 -5 0
-10 -4 -10 -10z"/>
<path d="M7626 4135 c5 -11 -1 -15 -21 -15 -15 0 -24 -4 -20 -10 9 -15 36 -12
50 6 9 13 16 14 31 6 18 -11 18 -12 -3 -18 -12 -3 -24 -12 -27 -20 -8 -20 5
-17 38 10 l29 24 -31 16 c-39 20 -53 20 -46 1z"/>
<path d="M7560 4070 c0 -5 7 -7 15 -4 8 4 15 8 15 10 0 2 -7 4 -15 4 -8 0 -15
-4 -15 -10z"/>
<path d="M7586 4050 c-16 -10 -42 -18 -58 -18 -32 1 -43 -6 -33 -22 5 -8 11
-8 21 1 9 8 14 8 14 1 0 -6 -8 -16 -17 -21 -10 -6 -13 -11 -6 -11 7 0 27 13
45 28 18 16 41 31 51 35 9 4 17 11 17 17 0 12 1 13 -34 -10z"/>
<path d="M7445 4000 c-3 -5 -2 -10 4 -10 5 0 13 5 16 10 3 6 2 10 -4 10 -5 0
-13 -4 -16 -10z"/>
<path d="M7176 3854 c-11 -8 -16 -14 -10 -14 13 0 39 18 34 24 -3 2 -14 -2
-24 -10z"/>
<path d="M6785 3620 c-3 -5 -1 -10 4 -10 6 0 11 5 11 10 0 6 -2 10 -4 10 -3 0
-8 -4 -11 -10z"/>
<path d="M6205 3470 c-3 -5 -1 -10 4 -10 6 0 11 5 11 10 0 6 -2 10 -4 10 -3 0
-8 -4 -11 -10z"/>
<path d="M3028 4497 c-29 -34 -80 -86 -113 -115 -76 -65 -165 -150 -165 -157
0 -16 25 2 89 64 39 38 87 79 106 92 19 13 35 30 35 37 0 6 7 12 15 12 8 0 15
7 15 15 0 8 5 15 10 15 14 0 13 -23 -2 -38 -9 -9 -8 -12 6 -12 14 0 17 7 14
37 l-3 37 60 -1 c33 -1 48 1 33 4 -16 2 -28 9 -28 15 0 6 -6 6 -15 -2 -16 -14
-20 -3 -6 19 7 11 18 9 59 -12 28 -14 52 -24 54 -23 1 2 11 -6 21 -16 14 -15
14 -18 2 -18 -8 0 -15 -5 -15 -10 0 -6 15 -8 40 -4 37 6 40 5 40 -17 0 -19 2
-21 10 -9 7 12 12 12 22 2 6 -6 20 -12 30 -12 10 0 18 -4 18 -9 0 -5 9 -12 19
-16 11 -3 34 -16 53 -28 18 -13 44 -23 57 -24 13 -1 33 -11 45 -22 11 -11 33
-23 48 -26 16 -4 26 -11 23 -15 -3 -4 6 -11 20 -14 26 -7 32 -20 15 -31 -19
-12 -11 -26 9 -15 11 5 22 10 25 10 11 0 6 -46 -6 -58 -24 -24 3 -11 46 22
l44 34 -39 18 c-21 11 -39 22 -39 25 0 4 -15 12 -32 19 -18 7 -62 26 -98 43
-36 17 -69 30 -74 29 -5 -2 -12 1 -15 6 -3 5 -26 20 -51 32 -25 12 -47 25 -50
29 -3 3 -27 17 -55 31 -27 14 -85 46 -127 73 -43 26 -82 47 -87 47 -6 0 -34
-28 -63 -63z m692 -299 c0 -5 -7 -8 -15 -8 -8 0 -15 2 -15 4 0 2 -3 12 -6 21
-6 15 -4 15 15 4 11 -8 21 -17 21 -21z"/>
<path d="M2934 4345 c-10 -8 -14 -14 -9 -15 15 0 40 18 34 24 -3 3 -14 -1 -25
-9z"/>
<path d="M2845 4264 l-30 -25 33 17 c17 10 32 22 32 26 0 12 -2 11 -35 -18z"/>
<path d="M3520 4279 c0 -5 5 -7 10 -4 6 3 10 8 10 11 0 2 -4 4 -10 4 -5 0 -10
-5 -10 -11z"/>
<path d="M3530 4250 c-12 -8 -9 -10 13 -10 15 0 27 5 27 10 0 13 -20 13 -40 0z"/>
<path d="M2703 4175 c-9 -10 -6 -12 14 -12 14 0 21 2 17 6 -5 3 -11 9 -14 13
-3 3 -10 0 -17 -7z"/>
<path d="M2648 4135 c-25 -34 -22 -39 7 -13 24 21 32 38 18 38 -5 0 -16 -11
-25 -25z"/>
<path d="M3624 4109 c-19 -22 -19 -22 3 -10 24 12 39 31 25 31 -5 0 -17 -10
-28 -21z"/>
<path d="M2595 4090 c-3 -6 1 -7 9 -4 18 7 21 14 7 14 -6 0 -13 -4 -16 -10z"/>
<path d="M3524 4068 c-3 -4 2 -5 10 -2 21 8 20 -6 -1 -22 -10 -7 -15 -14 -12
-14 3 0 19 11 37 23 l31 24 -30 0 c-16 0 -32 -4 -35 -9z"/>
<path d="M2527 4044 c-7 -7 2 -34 12 -34 4 0 7 9 7 20 0 20 -7 25 -19 14z"/>
<path d="M3460 3990 c-8 -5 -10 -10 -5 -10 6 0 17 5 25 10 8 5 11 10 5 10 -5
0 -17 -5 -25 -10z"/>
<path d="M2553 3925 c0 -22 2 -30 4 -17 2 12 2 30 0 40 -3 9 -5 -1 -4 -23z"/>
<path d="M3361 3897 c-13 -21 -12 -21 5 -5 10 10 16 20 13 22 -3 3 -11 -5 -18
-17z"/>
<path d="M2561 3875 c-1 -17 30 -159 36 -165 9 -8 -6 80 -22 130 -7 25 -14 41
-14 35z"/>
<path d="M3305 3860 c-3 -5 -2 -10 4 -10 5 0 13 5 16 10 3 6 2 10 -4 10 -5 0
-13 -4 -16 -10z"/>
<path d="M3251 3807 c-13 -21 -12 -21 5 -5 10 10 16 20 13 22 -3 3 -11 -5 -18
-17z"/>
<path d="M3170 3740 c-13 -11 -20 -20 -16 -20 4 0 19 9 33 20 14 11 21 20 16
20 -6 0 -20 -9 -33 -20z"/>
<path d="M2605 3660 c13 -80 38 -180 46 -185 5 -4 10 -18 10 -33 1 -17 3 -20
6 -10 2 10 -5 43 -16 73 -12 31 -21 70 -21 88 -1 18 -7 46 -15 62 -13 27 -14
28 -10 5z"/>
<path d="M3055 3660 c10 -11 20 -20 23 -20 3 0 -3 9 -13 20 -10 11 -20 20 -23
20 -3 0 3 -9 13 -20z"/>
<path d="M9300 15214 c-14 -2 -40 -7 -58 -10 -27 -4 -33 -9 -30 -27 8 -54 130
-91 304 -92 108 0 148 12 158 47 8 31 -14 56 -58 66 -46 11 -277 23 -316 16z"/>
<path d="M7408 15149 c-44 -13 -53 -46 -15 -53 147 -30 405 -42 428 -19 15 15
-1 37 -45 60 -37 19 -311 28 -368 12z"/>
<path d="M6740 14868 c-233 -83 -341 -136 -471 -230 -55 -40 -109 -78 -121
-84 -49 -28 -36 -31 112 -26 82 3 271 -1 419 -8 262 -12 270 -11 315 8 82 37
136 107 136 177 0 27 -9 43 -44 77 -24 24 -66 54 -93 67 -26 13 -56 27 -65 32
-29 15 -130 8 -188 -13z"/>
<path d="M10071 14878 c-86 -15 -161 -103 -161 -189 0 -96 41 -177 140 -276
32 -33 68 -57 98 -67 53 -19 163 -21 195 -5 32 17 97 80 113 112 23 44 20 145
-7 203 -27 57 -128 163 -180 187 -61 28 -150 44 -198 35z"/>
<path d="M10907 14426 c-89 -44 -124 -88 -147 -188 -11 -48 -11 -68 0 -115 36
-161 146 -303 264 -338 68 -21 103 -19 161 9 98 46 165 149 165 253 0 86 -18
138 -82 234 -98 149 -239 205 -361 145z"/>
<path d="M5620 14172 c-42 -6 -148 -59 -215 -107 -57 -40 -180 -163 -172 -172
8 -7 119 19 176 42 110 43 291 180 291 220 0 14 -40 22 -80 17z"/>
<path d="M6340 13991 c-113 -44 -248 -131 -390 -253 -12 -11 -6 -14 35 -20 28
-4 141 -21 253 -38 111 -17 251 -33 311 -37 100 -5 112 -4 144 16 38 23 47 44
47 109 0 96 -76 184 -200 229 -48 18 -146 15 -200 -6z"/>
<path d="M7180 13654 c-37 -15 -93 -60 -107 -88 -23 -43 -33 -104 -26 -151 13
-85 178 -207 300 -221 38 -5 61 -1 100 16 69 30 99 66 114 138 12 57 11 62
-14 115 -32 65 -91 116 -179 157 -62 27 -158 45 -188 34z"/>
<path d="M10765 13516 c-69 -30 -131 -114 -149 -201 -12 -55 51 -257 102 -334
31 -46 121 -118 159 -127 36 -10 142 47 196 105 83 89 96 187 45 356 -24 80
-102 170 -175 200 -43 18 -137 19 -178 1z"/>
<path d="M4760 13413 c-79 -52 -128 -96 -179 -158 -50 -62 -121 -160 -121
-169 0 -2 17 0 38 4 55 10 112 43 158 92 43 44 114 149 114 168 0 14 -13 13
-30 -2 -8 -7 3 6 23 30 49 56 48 70 -3 35z"/>
<path d="M5400 13215 c-41 -7 -97 -21 -125 -30 -62 -21 -195 -87 -195 -96 0
-4 18 -5 40 -2 118 16 446 -65 690 -170 290 -125 333 -136 375 -97 14 13 25
32 25 42 0 24 -65 112 -121 163 -123 113 -231 159 -444 190 -118 17 -145 17
-245 0z"/>
<path d="M3097 13113 c-133 -191 -187 -274 -187 -286 0 -8 22 -56 48 -108 110
-214 208 -354 349 -499 79 -82 82 -84 97 -65 30 38 137 215 152 250 16 39 18
86 5 101 -5 5 -26 41 -46 79 -63 119 -158 285 -209 365 -73 114 -151 230 -156
230 -3 0 -27 -30 -53 -67z"/>
<path d="M6646 12820 c-51 -39 -67 -64 -78 -118 -13 -72 5 -118 72 -184 111
-108 259 -159 373 -127 56 15 112 70 127 124 36 130 -105 256 -360 320 -77 20
-90 18 -134 -15z"/>
<path d="M3967 12476 c-13 -14 -35 -43 -49 -63 -66 -101 -98 -152 -98 -161 0
-15 108 5 138 26 15 11 34 33 42 49 8 15 18 30 21 33 3 3 11 26 17 52 12 45 8
78 -8 78 -5 0 -15 3 -24 6 -9 3 -25 -4 -39 -20z"/>
<path d="M4450 12348 c0 -11 21 -18 73 -27 182 -32 437 -107 587 -174 25 -10
59 -25 75 -32 17 -7 57 -25 90 -40 134 -61 217 -80 228 -51 17 43 -120 133
-328 216 -166 66 -378 110 -572 117 -131 5 -153 4 -153 -9z"/>
<path d="M6006 12065 c-59 -21 -88 -46 -113 -96 -28 -56 -28 -88 -1 -146 53
-113 194 -193 341 -193 102 0 195 69 204 153 12 107 -85 202 -276 271 -82 29
-100 31 -155 11z"/>
<path d="M3263 11723 c-42 -70 -70 -132 -87 -188 -8 -27 -17 -58 -21 -67 -11
-28 30 -22 78 11 71 49 132 200 106 263 -17 42 -43 35 -76 -19z"/>
<path d="M3782 11592 c-13 -4 -23 -11 -23 -17 0 -10 10 -13 216 -60 107 -24
264 -71 320 -94 11 -5 31 -13 45 -19 14 -5 52 -20 85 -32 51 -20 235 -103 287
-130 29 -16 115 -23 123 -11 44 73 -254 236 -565 309 -197 47 -429 72 -488 54z"/>
<path d="M5273 11292 c-46 -24 -64 -54 -70 -117 -11 -107 52 -199 180 -263 87
-44 156 -62 240 -62 81 0 130 22 176 77 58 71 35 172 -53 231 -86 59 -253 127
-335 137 -25 3 -59 8 -76 10 -17 2 -44 -3 -62 -13z"/>
<path d="M2970 10863 c-13 -27 -27 -57 -30 -68 -4 -11 -13 -33 -19 -48 -6 -15
-14 -59 -17 -97 -6 -65 -5 -70 12 -70 32 0 91 57 119 114 22 46 25 62 19 102
-9 63 -31 114 -48 114 -7 0 -24 -21 -36 -47z"/>
<path d="M3456 10828 c-3 -13 -8 -50 -11 -83 -4 -33 -10 -87 -15 -120 -7 -56
-6 -62 17 -82 13 -13 32 -23 41 -23 16 0 79 -22 327 -110 118 -42 183 -50 201
-25 21 28 19 198 -2 231 -32 48 -144 102 -354 170 -41 14 -84 29 -95 33 -92
39 -103 39 -109 9z"/>
<path d="M4447 10513 c-5 -8 -23 -117 -36 -221 -8 -61 1 -79 51 -103 142 -69
269 -112 346 -117 l72 -5 34 37 c37 39 46 78 35 149 -9 55 -67 110 -164 157
-128 61 -327 122 -338 103z"/>
<path d="M5450 10127 c-30 -15 -59 -70 -60 -114 0 -47 45 -138 90 -182 45 -44
98 -72 200 -105 103 -34 158 -40 225 -26 46 10 66 20 101 56 43 42 44 46 44
105 0 60 -1 64 -43 103 -112 108 -463 211 -557 163z"/>
<path d="M2777 9982 c-3 -4 -13 -77 -23 -162 l-17 -154 23 -15 c13 -9 47 -23
74 -32 28 -9 103 -36 166 -59 63 -23 126 -45 140 -48 14 -2 30 -8 35 -12 6 -5
30 -10 54 -12 40 -3 45 -1 52 22 4 14 7 76 8 138 1 98 -1 114 -18 131 -20 20
-122 71 -141 71 -6 0 -29 9 -53 19 -23 11 -62 26 -87 35 -81 27 -185 68 -197
77 -6 6 -14 6 -16 1z"/>
<path d="M3616 9678 c-3 -13 -8 -61 -11 -108 -3 -47 -9 -106 -12 -132 -5 -45
-4 -48 23 -59 16 -7 37 -11 47 -11 9 0 17 -3 17 -9 0 -5 7 -9 15 -9 8 0 24 -4
35 -10 11 -5 29 -14 40 -20 11 -5 29 -10 40 -10 11 0 28 -4 38 -10 9 -5 37
-16 62 -24 25 -8 69 -24 97 -35 40 -16 59 -18 78 -11 25 9 25 10 25 134 l0
125 -37 30 c-20 17 -73 44 -117 62 -83 32 -109 42 -148 58 -39 16 -171 61
-180 61 -4 0 -10 -10 -12 -22z"/>
<path d="M4502 9375 c-7 -15 -12 -77 -12 -150 0 -141 -3 -136 99 -175 31 -12
65 -26 76 -31 106 -45 242 -61 293 -35 76 40 111 121 78 185 -32 61 -160 133
-351 197 -127 42 -167 44 -183 9z"/>
<path d="M5509 9043 c-42 -11 -50 -102 -18 -190 41 -108 140 -180 308 -222
146 -36 226 -25 298 45 40 37 43 44 43 92 0 45 -4 57 -35 91 -42 46 -88 72
-200 113 -162 59 -329 89 -396 71z"/>
<path d="M2646 8952 c-3 -37 -7 -110 -8 -162 -3 -88 -2 -95 17 -98 11 -3 22
-7 25 -11 5 -6 46 -22 200 -76 160 -57 209 -68 225 -55 23 19 21 232 -2 255
-20 21 -146 81 -283 135 -58 23 -119 50 -137 60 l-31 18 -6 -66z"/>
<path d="M3450 8663 c0 -32 3 -102 7 -156 l6 -98 71 -34 c100 -46 333 -125
372 -125 18 0 36 5 40 11 18 30 22 91 12 176 l-11 92 -61 29 c-34 17 -77 35
-96 42 -19 7 -44 16 -55 21 -11 4 -40 15 -65 23 -25 8 -83 28 -129 45 -46 17
-86 31 -88 31 -1 0 -3 -26 -3 -57z"/>
<path d="M4313 8395 c-8 -23 18 -237 32 -260 12 -19 74 -54 178 -99 41 -19
157 -46 196 -46 46 0 105 24 138 57 29 30 33 40 33 87 0 50 -3 56 -39 89 -21
19 -55 42 -75 51 -20 9 -52 23 -71 31 -19 9 -85 31 -147 51 -62 19 -127 39
-144 44 -46 15 -94 12 -101 -5z"/>
<path d="M5337 8054 c-35 -35 42 -259 106 -308 124 -94 390 -151 487 -104 89
43 126 134 79 199 -27 38 -93 82 -149 99 -25 7 -49 17 -55 21 -5 4 -26 10 -45
14 -19 4 -98 22 -175 40 -156 37 -237 50 -248 39z"/>
<path d="M2630 7890 c0 -168 -16 -150 202 -224 187 -63 265 -83 278 -70 18 18
23 100 10 171 l-11 70 -68 31 c-81 37 -159 68 -221 89 -25 8 -64 23 -87 34
-24 10 -49 19 -57 19 -8 0 -18 5 -21 10 -19 30 -25 -2 -25 -130z"/>
<path d="M3442 7640 c3 -61 10 -116 16 -123 5 -6 12 -23 14 -36 4 -33 57 -59
243 -120 120 -40 176 -53 225 -54 l65 -2 0 103 0 104 -55 28 c-84 43 -192 88
-280 116 -25 8 -54 19 -65 23 -11 5 -53 23 -94 40 l-74 31 5 -110z"/>
<path d="M4350 7373 c0 -49 36 -182 61 -222 24 -40 128 -90 261 -126 164 -44
236 -31 278 51 49 94 7 138 -215 224 -11 4 -81 27 -155 50 -74 23 -148 46
-164 51 -55 17 -66 13 -66 -28z"/>
<path d="M2625 7068 c12 -161 13 -163 110 -209 141 -67 375 -149 425 -149 36
0 50 23 50 80 0 74 -34 102 -230 188 -120 53 -150 66 -216 99 -40 19 -82 45
-95 59 -43 46 -51 34 -44 -68z"/>
<path d="M5402 7064 c-39 -28 47 -241 118 -293 83 -60 266 -114 385 -115 64 0
91 5 127 23 102 49 137 135 83 199 -49 58 -153 96 -415 153 -180 38 -276 49
-298 33z"/>
<path d="M3486 6738 c6 -53 18 -106 34 -143 4 -11 10 -27 13 -35 5 -14 55 -42
157 -88 25 -11 110 -40 188 -66 139 -45 211 -56 241 -37 21 13 28 135 10 157
-12 14 -80 49 -144 74 -11 4 -40 17 -65 28 -25 11 -61 25 -80 32 -19 7 -44 16
-55 20 -11 4 -36 13 -55 20 -44 15 -63 23 -122 49 -26 12 -57 21 -67 21 -11 0
-23 5 -26 10 -3 6 -12 10 -20 10 -11 0 -13 -12 -9 -52z"/>
<path d="M4475 6364 c18 -152 63 -213 196 -264 254 -98 399 -92 445 18 12 29
12 38 -1 62 -15 30 -49 57 -100 79 -16 7 -37 17 -45 21 -15 7 -119 40 -317 99
-54 16 -118 33 -142 36 l-44 7 8 -58z"/>
<path d="M2618 6353 c-3 -4 2 -57 9 -118 16 -127 15 -125 138 -184 142 -68
216 -99 335 -137 41 -13 83 -29 92 -34 10 -6 36 -10 58 -10 37 0 42 3 56 35
32 77 12 120 -75 157 -77 34 -123 54 -191 84 -80 36 -391 192 -407 205 -6 6
-13 6 -15 2z"/>
<path d="M3583 5877 c4 -29 20 -80 36 -113 40 -82 78 -102 415 -216 125 -42
158 -50 202 -46 31 3 62 12 73 22 24 22 31 71 14 96 -14 21 -85 56 -163 83
-47 16 -120 43 -155 57 -11 4 -51 20 -90 35 -38 15 -86 34 -105 42 -19 8 -44
19 -55 23 -36 14 -99 42 -129 56 -46 22 -49 19 -43 -39z"/>
<path d="M11510 1404 c0 -3 8 -23 19 -43 10 -20 25 -49 32 -66 8 -16 53 -98
100 -182 123 -216 215 -342 416 -575 164 -190 217 -274 288 -453 l31 -80 197
-3 c116 -1 197 1 197 7 0 5 -9 61 -20 123 -34 202 -87 318 -264 583 -103 154
-288 343 -426 434 -134 89 -457 241 -513 241 -10 0 -27 5 -38 10 -10 6 -19 8
-19 4z"/>
<path d="M10790 1319 c0 -24 61 -160 111 -245 123 -214 215 -344 355 -501 191
-215 287 -345 356 -488 l41 -85 183 0 184 0 0 49 c0 160 -130 477 -258 630
-120 142 -209 214 -502 411 -121 81 -319 182 -410 210 -14 4 -33 11 -42 15
-10 4 -18 6 -18 4z"/>
<path d="M5192 415 c6 -13 18 -26 27 -28 14 -4 13 -5 -1 -6 -22 -1 -22 -5 -4
-39 8 -15 47 -92 87 -172 40 -80 78 -151 85 -157 10 -10 90 -13 339 -13 l327
0 -48 33 c-140 94 -682 365 -794 397 -28 8 -28 7 -18 -15z"/>
<path d="M4617 264 c-6 -6 -6 -7 49 -139 57 -137 37 -125 199 -125 l140 1 -40
35 c-50 44 -203 151 -270 188 -28 16 -55 32 -61 37 -6 5 -14 6 -17 3z"/>
</g>
</svg>
